HIERARCHY
ROOT Hips
{
	OFFSET 0.000000 0.000000 0.000000
	CHANNELS 6 Xposition Yposition Zposition Xrotation Yrotation Zrotation
	JOINT LeftUpLeg_virtual
	{
		OFFSET 0.000000 0.000000 0.000000
		CHANNELS 3 Xrotation Yrotation Zrotation
		JOINT LeftUpLeg
		{
			OFFSET 15.427100 -6.655098 0.678600
			CHANNELS 3 Xrotation Yrotation Zrotation
			JOINT LeftLeg
			{
				OFFSET 4.081073 -39.591068 13.024000
				CHANNELS 3 Xrotation Yrotation Zrotation
				JOINT LeftFoot
				{
					OFFSET -4.081074 -37.707932 -15.979700
					CHANNELS 3 Xrotation Yrotation Zrotation
					JOINT LeftToeBase
					{
						OFFSET 5.346399 -15.068900 20.645000
						CHANNELS 3 Xrotation Yrotation Zrotation
						JOINT LeftToe_End
						{
							OFFSET 2.754700 0.931300 11.300900
							CHANNELS 3 Xrotation Yrotation Zrotation
							End Site
							{
								OFFSET 0 0 0
							}
						}
					}
				}
			}
		}
	}
	JOINT RightUpLeg_virtual
	{
		OFFSET 0.000000 0.000000 0.000000
		CHANNELS 3 Xrotation Yrotation Zrotation
		JOINT RightUpLeg
		{
			OFFSET -15.569500 -6.655098 0.678600
			CHANNELS 3 Xrotation Yrotation Zrotation
			JOINT RightLeg
			{
				OFFSET -4.081825 -39.591045 13.023800
				CHANNELS 3 Xrotation Yrotation Zrotation
				JOINT RightFoot
				{
					OFFSET 4.081824 -37.707954 -15.979600
					CHANNELS 3 Xrotation Yrotation Zrotation
					JOINT RightToeBase
					{
						OFFSET -5.346400 -15.068900 20.645000
						CHANNELS 3 Xrotation Yrotation Zrotation
						JOINT RightToe_End
						{
							OFFSET -2.754700 0.931300 11.300900
							CHANNELS 3 Xrotation Yrotation Zrotation
							End Site
							{
								OFFSET 0 0 0
							}
						}
					}
				}
			}
		}
	}
	JOINT Spine_virtual
	{
		OFFSET 0.000000 0.000000 0.000000
		CHANNELS 3 Xrotation Yrotation Zrotation
		JOINT Spine
		{
			OFFSET -0.279200 12.230698 -2.892100
			CHANNELS 3 Xrotation Yrotation Zrotation
			JOINT Spine1
			{
				OFFSET -0.232667 10.192268 -1.242267
				CHANNELS 3 Xrotation Yrotation Zrotation
				JOINT Spine1_split
				{
					OFFSET -0.232667 10.192268 -1.242267
					CHANNELS 3 Xrotation Yrotation Zrotation
					JOINT Spine2
					{
						OFFSET -0.232667 10.192268 -1.242267
						CHANNELS 3 Xrotation Yrotation Zrotation
						JOINT Neck_virtual
						{
							OFFSET 0.000000 0.000000 0.000000
							CHANNELS 3 Xrotation Yrotation Zrotation
							JOINT Neck
							{
								OFFSET -0.418800 17.814194 8.416900
								CHANNELS 3 Xrotation Yrotation Zrotation
								JOINT Head
								{
									OFFSET 0.000000 7.031097 3.806800
									CHANNELS 3 Xrotation Yrotation Zrotation
									JOINT HeadTop_End
									{
										OFFSET 0.000000 24.646606 12.978600
										CHANNELS 3 Xrotation Yrotation Zrotation
										End Site
										{
											OFFSET 0 0 0
										}
									}
								}
							}
						}
						JOINT LeftShoulder_virtual
						{
							OFFSET 0.000000 0.000000 0.000000
							CHANNELS 3 Xrotation Yrotation Zrotation
							JOINT LeftShoulder
							{
								OFFSET 8.476499 7.247704 -3.868750
								CHANNELS 3 Xrotation Yrotation Zrotation
								JOINT LeftShoulder_split
								{
									OFFSET 8.476499 7.247704 -3.868750
									CHANNELS 3 Xrotation Yrotation Zrotation
									JOINT LeftArm
									{
										OFFSET 9.308998 -2.777710 0.208600
										CHANNELS 3 Xrotation Yrotation Zrotation
										JOINT LeftForeArm
										{
											OFFSET 29.972298 0.000000 0.000000
											CHANNELS 3 Xrotation Yrotation Zrotation
											JOINT LeftHand
											{
												OFFSET 26.026505 0.000000 0.000000
												CHANNELS 3 Xrotation Yrotation Zrotation
												End Site
												{
													OFFSET 0 0 0
												}
											}
										}
									}
								}
							}
						}
						JOINT RightShoulder_virtual
						{
							OFFSET 0.000000 0.000000 0.000000
							CHANNELS 3 Xrotation Yrotation Zrotation
							JOINT RightShoulder
							{
								OFFSET -7.570500 7.247704 -3.868750
								CHANNELS 3 Xrotation Yrotation Zrotation
								JOINT RightShoulder_split
								{
									OFFSET -7.570500 7.247704 -3.868750
									CHANNELS 3 Xrotation Yrotation Zrotation
									JOINT RightArm
									{
										OFFSET -9.308998 -2.777710 0.208500
										CHANNELS 3 Xrotation Yrotation Zrotation
										JOINT RightForeArm
										{
											OFFSET -29.972300 0.000000 0.000000
											CHANNELS 3 Xrotation Yrotation Zrotation
											JOINT RightHand
											{
												OFFSET -26.026505 0.000000 0.000000
												CHANNELS 3 Xrotation Yrotation Zrotation
												End Site
												{
													OFFSET 0 0 0
												}
											}
										}
									}
								}
							}
						}
					}
				}
			}
		}
	}
}
MOTION
Frames: 8
Frame Time: 0.03333333
0.272587 210.574402 -0.470673 0.000000 0.000000 0.000000 -5.108955 5.676204 7.456106 -15.139148 18.612458 9.262852 10.719152 -3.829136 0.425611 -10.847090 -0.763962 -0.665159 -2.216221 -0.596451 -2.221594 0.000000 0.000000 0.000000 -3.134786 2.570729 6.642565 -4.022724 -4.253336 -7.090160 12.902083 2.828858 -0.822711 -18.933911 -3.854790 2.946749 -10.370790 0.081084 -2.327885 0.000000 0.000000 0.000000 -0.934323 3.177419 5.977248 2.019425 -0.959627 2.158454 10.612075 -0.735757 3.616798 1.278205 1.636373 0.183450 0.000000 0.000000 0.000000 9.549654 -0.962999 3.177422 0.229397 0.421238 -4.388658 8.079757 8.458878 -8.191915 0.000000 0.000000 0.000000 10.841518 -0.977734 2.796890 0.313425 15.956973 -9.262021 -0.785056 -1.828833 -0.481748 2.026763 -12.661085 -60.195953 -0.498356 -48.345103 0.449627 0.000000 0.000000 0.000000 11.256525 -0.446253 3.285078 2.331571 2.703510 7.630818 0.853729 0.959116 -1.377221 -1.891621 7.820495 56.983319 1.510740 38.547942 -1.516120 0.000000 0.000000 0.000000 
0.077621 210.552643 -0.644672 0.000000 0.000000 0.000000 -4.982427 5.949421 7.413491 -15.229396 18.310590 9.396851 10.824047 -3.290462 0.671448 -11.072295 -0.353144 -0.282768 -2.183102 -0.585059 -2.498717 0.000000 0.000000 0.000000 -2.941556 2.783035 6.468470 -4.108959 -4.451566 -6.950331 12.492283 2.638643 -0.790410 -18.922844 -4.039023 2.696595 -10.475506 0.032561 -2.221512 0.000000 0.000000 0.000000 -0.760270 2.858406 6.043397 1.975535 -0.998145 2.121078 10.646510 -0.735525 3.544347 0.875858 1.566810 -0.029194 0.000000 0.000000 0.000000 9.536889 -0.961342 3.127665 -0.258931 0.372181 -4.546903 8.141765 8.143920 -8.019490 0.000000 0.000000 0.000000 10.846241 -0.942789 2.720017 0.313247 15.825779 -8.810409 -1.211595 -1.246426 -0.705698 1.434088 -12.771464 -60.154043 -0.596534 -48.363938 0.275269 0.000000 0.000000 0.000000 11.307392 -0.479644 3.194860 2.263633 2.586522 7.559577 0.651186 0.820077 -1.291157 -1.972433 7.931497 56.820579 1.425144 40.113107 -1.355406 0.000000 0.000000 0.000000 
-0.141880 210.230865 -0.884979 0.000000 0.000000 0.000000 -4.592687 6.206134 7.204139 -15.616399 18.025458 9.640325 11.245630 -2.510524 0.956889 -11.789777 0.348956 0.324445 -2.474913 -0.583256 -2.414122 0.000000 0.000000 0.000000 -2.444658 2.842768 6.228410 -4.685265 -4.638490 -6.880137 13.019537 2.506463 -0.641947 -19.613447 -4.166441 2.619569 -10.751728 -0.002608 -2.137141 0.000000 0.000000 0.000000 -0.214617 2.531775 6.044848 1.953763 -0.864645 2.121527 10.684777 -0.719287 3.437387 0.651144 1.276262 -0.169701 0.000000 0.000000 0.000000 9.576332 -0.933057 3.044189 -1.023004 0.391765 -4.769396 7.638144 7.556700 -7.510617 0.000000 0.000000 0.000000 10.754637 -0.891077 2.633494 0.246099 15.552621 -8.066719 -1.567568 -0.884991 -0.946583 0.871711 -13.028216 -60.045286 -0.389569 -48.878463 0.243716 0.000000 0.000000 0.000000 11.333218 -0.496197 3.077395 2.200021 2.535389 7.235306 0.385289 0.381296 -1.113332 -1.304783 9.156961 56.209633 1.419252 42.341934 -1.222331 0.000000 0.000000 0.000000 
-0.323994 209.650757 -1.244419 0.000000 0.000000 0.000000 -4.053787 6.471705 6.868473 -16.446349 17.704248 9.800161 12.095275 -1.721604 1.222568 -12.772825 1.073172 0.842802 -2.921427 -0.593519 -1.958817 0.000000 0.000000 0.000000 -1.789367 2.956599 5.941568 -5.583018 -4.647951 -6.913972 14.124705 2.413588 -0.473409 -21.112779 -4.222869 2.717247 -10.871563 -0.015116 -2.150091 0.000000 0.000000 0.000000 0.638507 2.351480 5.959812 1.978701 -0.632352 2.165970 10.751663 -0.737211 3.330882 0.617253 0.902135 -0.326581 0.000000 0.000000 0.000000 9.688576 -0.930392 2.943432 -1.915549 0.457290 -4.979336 6.586528 6.825144 -6.747278 0.000000 0.000000 0.000000 10.635111 -0.874114 2.553240 0.130329 15.106159 -7.192864 -1.688639 -0.794013 -1.148589 0.222415 -13.363304 -59.759422 -0.021320 -49.636685 0.271282 0.000000 0.000000 0.000000 11.318485 -0.532918 2.961109 2.128724 2.646127 6.763591 0.233819 -0.156706 -0.973125 0.013760 11.305080 55.158975 1.502545 44.971560 -1.144922 0.000000 0.000000 0.000000 
-0.353935 208.943115 -1.697243 0.000000 0.000000 0.000000 -3.443726 6.884104 6.489040 -17.834531 17.313293 9.694987 13.504145 -1.160907 1.457545 -13.672064 1.621835 0.974079 -3.153093 -0.619522 -1.287894 0.000000 0.000000 0.000000 -1.139655 3.229955 5.661603 -6.492338 -4.374679 -7.032776 15.416937 2.255857 -0.348068 -23.210052 -4.232163 2.922707 -10.532692 0.018000 -2.279528 0.000000 0.000000 0.000000 1.648533 2.438603 5.810297 2.066258 -0.424728 2.224056 10.869581 -0.844959 3.249101 0.642103 0.572922 -0.387706 0.000000 0.000000 0.000000 9.878803 -1.008888 2.863185 -2.723285 0.533373 -5.074199 5.142613 6.018490 -5.841875 0.000000 0.000000 0.000000 10.571658 -0.939843 2.492576 0.019477 14.486271 -6.336799 -1.434827 -0.719170 -1.238898 -0.397815 -13.767462 -59.122076 0.339163 -50.638179 0.289852 0.000000 0.000000 0.000000 11.291112 -0.641678 2.881577 2.038205 2.959519 6.226092 0.160199 -0.697171 -1.035106 1.892846 14.110236 53.600473 1.640244 47.928906 -1.125940 0.000000 0.000000 0.000000 
-0.252323 208.247253 -1.996101 0.000000 0.000000 0.000000 -2.838014 7.600592 6.165356 -19.770954 16.942317 9.221010 15.465039 -0.892537 1.617911 -14.139078 1.921023 0.604921 -2.999316 -0.635276 -0.604485 0.000000 0.000000 0.000000 -0.507866 3.682981 5.433083 -7.157405 -3.848936 -7.201981 16.466828 1.991608 -0.271579 -25.408816 -4.250272 3.234537 -9.881964 0.102666 -2.495765 0.000000 0.000000 0.000000 2.649050 2.906799 5.618459 2.134864 -0.359716 2.280840 11.067055 -1.067346 3.220394 0.779339 0.409003 -0.233788 0.000000 0.000000 0.000000 10.153483 -1.186659 2.818445 -3.295428 0.597863 -5.037101 3.448334 5.145802 -4.916496 0.000000 0.000000 0.000000 10.652853 -1.104374 2.470577 -0.035317 13.674772 -5.684019 -1.039479 -0.478073 -1.131363 -0.886713 -14.084551 -58.017164 0.563946 -51.838486 0.261805 0.000000 0.000000 0.000000 11.305648 -0.834971 2.859173 1.947110 3.456921 5.704939 0.392869 -0.955506 -1.373270 4.114882 17.170670 51.457986 1.760475 51.450295 -1.110799 0.000000 0.000000 0.000000 
-0.136527 207.710327 -2.074219 0.000000 0.000000 0.000000 -2.266154 8.420059 5.972640 -21.944756 16.652013 8.460859 17.653312 -0.774045 1.712023 -14.089032 1.982087 0.046425 -2.589934 -0.636460 -0.043996 0.000000 0.000000 0.000000 0.142237 4.339138 5.295248 -7.560499 -3.228688 -7.417325 16.962438 1.643408 -0.198327 -27.129988 -4.256995 3.783432 -9.599646 0.249136 -2.729502 0.000000 0.000000 0.000000 3.512033 3.685706 5.388318 2.200368 -0.486120 2.299169 11.382433 -1.377610 3.255007 1.002984 0.052276 0.081738 0.000000 0.000000 0.000000 10.556103 -1.456580 2.832984 -3.557651 0.619679 -4.915200 1.621361 4.164301 -4.030639 0.000000 0.000000 0.000000 10.932893 -1.358176 2.513114 -0.052401 12.715700 -5.245059 -0.535221 -0.006295 -0.768909 -1.193332 -14.259006 -56.537618 0.616217 -53.446353 0.243766 0.000000 0.000000 0.000000 11.420809 -1.120801 2.905790 1.845406 3.963407 5.214189 0.915037 -0.964969 -1.808552 6.340390 20.227235 48.849615 1.843609 55.753065 -1.128343 0.000000 0.000000 0.000000 
0.045949 207.376495 -2.041279 0.000000 0.000000 0.000000 -1.645284 9.214212 5.928423 -23.976390 16.603235 7.495836 19.660843 -0.623623 1.716416 -14.054290 1.785168 -0.128647 -2.011082 -0.660243 0.349361 0.000000 0.000000 0.000000 0.926416 5.083072 5.226119 -7.706269 -2.705589 -7.657531 16.828012 1.263521 -0.116983 -28.146474 -4.231811 4.496873 -9.985696 0.438431 -2.882914 0.000000 0.000000 0.000000 4.209612 4.607121 5.149944 2.289181 -0.757459 2.240497 11.854183 -1.677676 3.356478 1.110537 -0.331525 0.294653 0.000000 0.000000 0.000000 11.154548 -1.733786 2.935305 -3.527874 0.590297 -4.769385 -0.269373 3.137760 -3.241750 0.000000 0.000000 0.000000 11.463619 -1.619875 2.631160 -0.047008 11.685416 -5.011134 -0.128542 0.562787 -0.198500 -1.144395 -14.420795 -54.909076 0.609437 -55.633284 0.315889 0.000000 0.000000 0.000000 11.754568 -1.441514 3.020535 1.750515 4.383328 4.669706 1.346273 -0.771252 -2.287314 8.405233 23.048405 45.857849 1.780371 60.682017 -1.063931 0.000000 0.000000 0.000000 
